<mxfile host="Electron" modified="2024-02-04T12:32:27.719Z" agent="Mozilla/5.0 (Windows NT 10.0; Win64; x64) AppleWebKit/537.36 (KHTML, like Gecko) draw.io/23.0.2 Chrome/120.0.6099.109 Electron/28.1.0 Safari/537.36" etag="r2QofaHA3f8Q7W2lcC8y" version="23.0.2" type="device">
  <diagram name="Page-1" id="M1eGeQKmj27uRQK68Jcx">
    <mxGraphModel dx="794" dy="511" grid="1" gridSize="10" guides="1" tooltips="1" connect="1" arrows="1" fold="1" page="1" pageScale="1" pageWidth="827" pageHeight="1169" math="0" shadow="0">
      <root>
        <mxCell id="0" />
        <mxCell id="1" parent="0" />
        <UserObject label="User" type="externalEntity" source="" flow="Request Collection/Object List, Contact Repository" placeholders="1" id="9CiSJUvOrkPKyuzAylD_-1">
          <mxCell style="shape=rectangle;whiteSpace=wrap;html=1;fillColor=#ffffff;strokeColor=#000000;align=center;verticalAlign=middle;fontColor=#232F3E;" vertex="1" parent="1">
            <mxGeometry x="195" width="55" height="35" as="geometry" />
          </mxCell>
        </UserObject>
        <UserObject label="DAMS Manager" type="externalEntity" source="" flow="List Collections, Monitor Events" placeholders="1" id="9CiSJUvOrkPKyuzAylD_-2">
          <mxCell style="shape=rectangle;whiteSpace=wrap;html=1;fillColor=#ffffff;strokeColor=#000000;align=center;verticalAlign=middle;fontColor=#232F3E;" vertex="1" parent="1">
            <mxGeometry x="330" width="115" height="35" as="geometry" />
          </mxCell>
        </UserObject>
        <UserObject label="DAMS Interface" type="process" source="1,2" flow="List Collections/Objects, Contact Information, Event Outcome" placeholders="1" id="9CiSJUvOrkPKyuzAylD_-3">
          <mxCell style="shape=ellipse;perimeter=ellipsePerimeter;whiteSpace=wrap;html=1;fillColor=#ffffff;strokeColor=#000000;align=center;verticalAlign=middle;fontColor=#232F3E;" vertex="1" parent="1">
            <mxGeometry x="165" y="135" width="115" height="35" as="geometry" />
          </mxCell>
        </UserObject>
        <UserObject label="Collections and Objects" type="dataStore" source="3" flow="Collection/Object Information" placeholders="1" id="9CiSJUvOrkPKyuzAylD_-4">
          <mxCell style="html=1;dashed=0;whiteSpace=wrap;shape=partialRectangle;right=0;left=0;" vertex="1" parent="1">
            <mxGeometry x="82.5" y="270" width="155" height="35" as="geometry" />
          </mxCell>
        </UserObject>
        <UserObject label="Repository Contacts" type="dataStore" source="3" flow="Contact Information" placeholders="1" id="9CiSJUvOrkPKyuzAylD_-5">
          <mxCell style="html=1;dashed=0;whiteSpace=wrap;shape=partialRectangle;right=0;left=0;" vertex="1" parent="1">
            <mxGeometry x="267.5" y="270" width="135" height="35" as="geometry" />
          </mxCell>
        </UserObject>
        <UserObject label="Event Log" type="dataStore" source="3" flow="Event Outcome" placeholders="1" id="9CiSJUvOrkPKyuzAylD_-6">
          <mxCell style="html=1;dashed=0;whiteSpace=wrap;shape=partialRectangle;right=0;left=0;" vertex="1" parent="1">
            <mxGeometry x="432.5" y="270" width="85" height="35" as="geometry" />
          </mxCell>
        </UserObject>
        <UserObject label="List Collections/Objects" type="process" source="1,2" flow="Collection/Object Information" placeholders="1" id="9CiSJUvOrkPKyuzAylD_-7">
          <mxCell style="shape=ellipse;perimeter=ellipsePerimeter;whiteSpace=wrap;html=1;fillColor=#ffffff;strokeColor=#000000;align=center;verticalAlign=middle;fontColor=#232F3E;" vertex="1" parent="1">
            <mxGeometry x="310" y="135" width="155" height="35" as="geometry" />
          </mxCell>
        </UserObject>
        <UserObject label="Contact Repository" type="process" source="1" flow="Contact Information" placeholders="1" id="9CiSJUvOrkPKyuzAylD_-8">
          <mxCell style="shape=ellipse;perimeter=ellipsePerimeter;whiteSpace=wrap;html=1;fillColor=#ffffff;strokeColor=#000000;align=center;verticalAlign=middle;fontColor=#232F3E;" vertex="1" parent="1">
            <mxGeometry y="135" width="135" height="35" as="geometry" />
          </mxCell>
        </UserObject>
        <UserObject label="Monitor Events" type="process" source="2" flow="Event Outcome" placeholders="1" id="9CiSJUvOrkPKyuzAylD_-9">
          <mxCell style="shape=ellipse;perimeter=ellipsePerimeter;whiteSpace=wrap;html=1;fillColor=#ffffff;strokeColor=#000000;align=center;verticalAlign=middle;fontColor=#232F3E;" vertex="1" parent="1">
            <mxGeometry x="495" y="135" width="105" height="35" as="geometry" />
          </mxCell>
        </UserObject>
        <mxCell id="9CiSJUvOrkPKyuzAylD_-10" value="List Collections/Objects, Contact Information, Event Outcome" style="endArrow=blockThin;endFill=1;fontSize=11;orthogonal=1;noEdgeStyle=1;" edge="1" parent="1" source="9CiSJUvOrkPKyuzAylD_-1" target="9CiSJUvOrkPKyuzAylD_-3">
          <mxGeometry relative="1" as="geometry">
            <Array as="points">
              <mxPoint x="222.5" y="49" />
              <mxPoint x="196.25" y="123" />
            </Array>
          </mxGeometry>
        </mxCell>
        <mxCell id="9CiSJUvOrkPKyuzAylD_-11" value="List Collections/Objects, Contact Information, Event Outcome" style="endArrow=blockThin;endFill=1;fontSize=11;orthogonal=1;noEdgeStyle=1;" edge="1" parent="1" source="9CiSJUvOrkPKyuzAylD_-2" target="9CiSJUvOrkPKyuzAylD_-3">
          <mxGeometry relative="1" as="geometry">
            <Array as="points">
              <mxPoint x="352.5" y="47" />
              <mxPoint x="248.75" y="123" />
            </Array>
          </mxGeometry>
        </mxCell>
        <mxCell id="9CiSJUvOrkPKyuzAylD_-12" value="Collection/Object Information" style="endArrow=blockThin;endFill=1;fontSize=11;orthogonal=1;noEdgeStyle=1;" edge="1" parent="1" source="9CiSJUvOrkPKyuzAylD_-3" target="9CiSJUvOrkPKyuzAylD_-4">
          <mxGeometry relative="1" as="geometry">
            <Array as="points">
              <mxPoint x="187.5" y="182" />
              <mxPoint x="160" y="258" />
            </Array>
          </mxGeometry>
        </mxCell>
        <mxCell id="9CiSJUvOrkPKyuzAylD_-13" value="Contact Information" style="endArrow=blockThin;endFill=1;fontSize=11;orthogonal=1;noEdgeStyle=1;" edge="1" parent="1" source="9CiSJUvOrkPKyuzAylD_-3" target="9CiSJUvOrkPKyuzAylD_-5">
          <mxGeometry relative="1" as="geometry">
            <Array as="points">
              <mxPoint x="222.5" y="184" />
              <mxPoint x="335" y="258" />
            </Array>
          </mxGeometry>
        </mxCell>
        <mxCell id="9CiSJUvOrkPKyuzAylD_-14" value="Event Outcome" style="endArrow=blockThin;endFill=1;fontSize=11;orthogonal=1;noEdgeStyle=1;" edge="1" parent="1" source="9CiSJUvOrkPKyuzAylD_-3" target="9CiSJUvOrkPKyuzAylD_-6">
          <mxGeometry relative="1" as="geometry">
            <Array as="points">
              <mxPoint x="257.5" y="182" />
              <mxPoint x="475" y="258" />
            </Array>
          </mxGeometry>
        </mxCell>
        <mxCell id="9CiSJUvOrkPKyuzAylD_-15" value="Collection/Object Information" style="endArrow=blockThin;endFill=1;fontSize=11;orthogonal=1;noEdgeStyle=1;" edge="1" parent="1" source="9CiSJUvOrkPKyuzAylD_-1" target="9CiSJUvOrkPKyuzAylD_-7">
          <mxGeometry relative="1" as="geometry">
            <Array as="points">
              <mxPoint x="237.5" y="47" />
              <mxPoint x="351.25" y="123" />
            </Array>
          </mxGeometry>
        </mxCell>
        <mxCell id="9CiSJUvOrkPKyuzAylD_-16" value="Collection/Object Information" style="endArrow=blockThin;endFill=1;fontSize=11;orthogonal=1;noEdgeStyle=1;" edge="1" parent="1" source="9CiSJUvOrkPKyuzAylD_-2" target="9CiSJUvOrkPKyuzAylD_-7">
          <mxGeometry relative="1" as="geometry">
            <Array as="points">
              <mxPoint x="387.5" y="49" />
              <mxPoint x="423.75" y="123" />
            </Array>
          </mxGeometry>
        </mxCell>
        <mxCell id="9CiSJUvOrkPKyuzAylD_-17" value="Contact Information" style="endArrow=blockThin;endFill=1;fontSize=11;orthogonal=1;noEdgeStyle=1;" edge="1" parent="1" source="9CiSJUvOrkPKyuzAylD_-1" target="9CiSJUvOrkPKyuzAylD_-8">
          <mxGeometry relative="1" as="geometry">
            <Array as="points">
              <mxPoint x="207.5" y="47" />
              <mxPoint x="67.5" y="123" />
            </Array>
          </mxGeometry>
        </mxCell>
        <mxCell id="9CiSJUvOrkPKyuzAylD_-18" value="Event Outcome" style="endArrow=blockThin;endFill=1;fontSize=11;orthogonal=1;noEdgeStyle=1;" edge="1" parent="1" source="9CiSJUvOrkPKyuzAylD_-2" target="9CiSJUvOrkPKyuzAylD_-9">
          <mxGeometry relative="1" as="geometry">
            <Array as="points">
              <mxPoint x="422.5" y="47" />
              <mxPoint x="547.5" y="123" />
            </Array>
          </mxGeometry>
        </mxCell>
      </root>
    </mxGraphModel>
  </diagram>
</mxfile>
